<svg xmlns="http://www.w3.org/2000/svg" width="340" height="250">
<defs>
  <style>
    .o { fill: none; stroke: rgba(74,222,128,0.22); stroke-width: 1.2; stroke-linecap: round; stroke-linejoin: round; }
    .ob { fill: none; stroke: rgba(74,222,128,0.22); stroke-width: 1.5; stroke-linecap: round; stroke-linejoin: round; }
  </style>

  <symbol id="bunny" viewBox="-30 -50 60 100">
    <ellipse cx="0" cy="18" rx="20" ry="24" class="o"/>
    <circle cx="0" cy="-12" r="16" class="o"/>
    <ellipse cx="-9" cy="-32" rx="4" ry="12" class="o"/>
    <ellipse cx="9" cy="-32" rx="4" ry="12" class="o"/>
    <circle cx="-6" cy="-15" r="2.5" class="o"/>
    <circle cx="6" cy="-15" r="2.5" class="o"/>
    <ellipse cx="0" cy="-8" rx="2.5" ry="1.8" class="o"/>
    <path d="M-3,-5 Q0,-2 3,-5" class="o"/>
    <ellipse cx="0" cy="18" rx="12" ry="14" class="o"/>
    <ellipse cx="-9" cy="40" rx="9" ry="4" class="o"/>
    <ellipse cx="9" cy="40" rx="9" ry="4" class="o"/>
  </symbol>

  <symbol id="reaper" viewBox="-40 -85 80 160">
    <path d="M0,-55 C-28,-44 -34,2 -32,62 L32,62 C34,2 28,-44 0,-55Z" class="ob"/>
    <path d="M0,-55 C-20,-55 -26,-22 -18,0 L18,0 C26,-22 20,-55 0,-55Z" class="ob"/>
    <ellipse cx="-5" cy="-32" rx="3" ry="3.5" class="o"/>
    <ellipse cx="5" cy="-32" rx="3" ry="3.5" class="o"/>
    <line x1="28" y1="-58" x2="18" y2="62" class="o"/>
    <path d="M18,-42 C46,-62 62,-30 28,-20" class="ob"/>
    <ellipse cx="-26" cy="18" rx="6" ry="9" class="o"/>
    <polygon points="0,-74 -7,-62 0,-50 7,-62" class="o"/>
  </symbol>

  <symbol id="cowplant" viewBox="-50 -100 100 190">
    <rect x="-5" y="22" width="10" height="56" rx="3" class="o"/>
    <path d="M-5,42 C-36,24 -40,58 -5,52" class="o"/>
    <path d="M5,52 C36,34 40,68 5,62" class="o"/>
    <path d="M-14,-18 C-18,-48 18,-48 14,-18 L11,22 L-11,22Z" class="o"/>
    <ellipse cx="0" cy="-40" rx="26" ry="20" class="ob"/>
    <path d="M-26,-40 C-18,-66 18,-66 26,-40" class="ob"/>
    <path d="M-20,-50 L-16,-40 M-8,-54 L-6,-42 M2,-56 L2,-42 M12,-54 L10,-42 M20,-50 L16,-40" class="o"/>
    <path d="M-16,-40 C-8,-26 8,-26 16,-40" class="o"/>
    <rect x="-7" y="-42" width="14" height="10" rx="2" class="o"/>
    <circle cx="-10" cy="-58" r="4" class="o"/>
    <circle cx="10" cy="-58" r="4" class="o"/>
    <circle cx="0" cy="-82" r="7" class="o"/>
    <circle cx="-11" cy="-78" r="5" class="o"/>
    <circle cx="11" cy="-78" r="5" class="o"/>
    <ellipse cx="0" cy="78" rx="28" ry="9" class="o"/>
  </symbol>

  <symbol id="plumbob" viewBox="-26 -50 52 100">
    <polygon points="0,-46 -22,0 0,46 22,0" class="ob"/>
    <line x1="0" y1="-46" x2="-22" y2="0" class="o"/>
    <line x1="0" y1="-46" x2="22" y2="0" class="o"/>
    <line x1="-22" y1="0" x2="0" y2="8" class="o"/>
    <line x1="22" y1="0" x2="0" y2="8" class="o"/>
    <line x1="0" y1="-46" x2="0" y2="8" class="o"/>
  </symbol>

  <symbol id="ghost" viewBox="-32 -72 64 110">
    <path d="M-26,-22 C-28,-60 28,-60 26,-22 L26,28 C18,20 9,34 0,26 C-9,34 -18,20 -26,28Z" class="ob"/>
    <circle cx="-9" cy="-22" r="4.5" class="o"/>
    <circle cx="9" cy="-22" r="4.5" class="o"/>
    <ellipse cx="0" cy="-10" rx="5.5" ry="6.5" class="o"/>
    <path d="M-18,8 C-22,16 -14,20 -18,28" class="o" stroke-dasharray="3,2"/>
    <path d="M18,8 C22,16 14,20 18,28" class="o" stroke-dasharray="3,2"/>
    <polygon points="0,-66 -8,-54 0,-42 8,-54" class="o"/>
  </symbol>

  <symbol id="bonehilda" viewBox="-46 -90 92 150">
    <rect x="-16" y="-76" width="32" height="7" rx="2" class="o"/>
    <rect x="-8" y="-84" width="16" height="10" rx="2" class="o"/>
    <ellipse cx="0" cy="-54" rx="16" ry="18" class="ob"/>
    <rect x="-11" y="-38" width="22" height="9" rx="3" class="o"/>
    <ellipse cx="-6" cy="-58" rx="5" ry="6" class="o"/>
    <ellipse cx="6" cy="-58" rx="5" ry="6" class="o"/>
    <path d="M-2,-48 L0,-43 L2,-48Z" class="o"/>
    <line x1="-7" y1="-38" x2="-7" y2="-30" class="o"/>
    <line x1="-2" y1="-38" x2="-2" y2="-30" class="o"/>
    <line x1="3" y1="-38" x2="3" y2="-30" class="o"/>
    <line x1="8" y1="-38" x2="8" y2="-30" class="o"/>
    <path d="M-18,-20 C-20,20 20,20 18,-20 L12,-28 L-12,-28Z" class="ob"/>
    <path d="M-10,-10 C-8,14 8,14 10,-10 L6,-18 L-6,-18Z" class="o"/>
    <path d="M-16,-24 C-6,-14 6,-14 16,-24 C10,-28 4,-24 0,-26 C-4,-24 -10,-28 -16,-24Z" class="o"/>
    <line x1="-18" y1="-18" x2="-34" y2="0" class="ob"/>
    <line x1="18" y1="-18" x2="34" y2="0" class="ob"/>
    <circle cx="-34" cy="0" r="4" class="o"/>
    <circle cx="34" cy="0" r="4" class="o"/>
    <line x1="34" y1="0" x2="42" y2="48" class="o"/>
    <path d="M34,44 C28,54 50,54 44,44Z" class="o"/>
    <line x1="-7" y1="20" x2="-9" y2="48" class="ob"/>
    <line x1="7" y1="20" x2="9" y2="48" class="ob"/>
    <ellipse cx="-9" cy="52" rx="9" ry="4" class="o"/>
    <ellipse cx="9" cy="52" rx="9" ry="4" class="o"/>
  </symbol>

  <symbol id="deathflower" viewBox="-30 -95 60 165">
    <path d="M0,58 C-4,28 4,8 0,-12" class="o"/>
    <path d="M0,38 C-22,22 -25,42 0,36" class="o"/>
    <path d="M0,18 C22,2 25,22 0,16" class="o"/>
    <ellipse cx="0" cy="-26" rx="7" ry="16" class="o"/>
    <ellipse cx="0" cy="-26" rx="7" ry="16" class="o" transform="rotate(45,0,-10)"/>
    <ellipse cx="0" cy="-26" rx="7" ry="16" class="o" transform="rotate(90,0,-10)"/>
    <ellipse cx="0" cy="-26" rx="7" ry="16" class="o" transform="rotate(135,0,-10)"/>
    <ellipse cx="0" cy="-26" rx="7" ry="16" class="o" transform="rotate(180,0,-10)"/>
    <ellipse cx="0" cy="-26" rx="7" ry="16" class="o" transform="rotate(225,0,-10)"/>
    <ellipse cx="0" cy="-26" rx="7" ry="16" class="o" transform="rotate(270,0,-10)"/>
    <ellipse cx="0" cy="-26" rx="7" ry="16" class="o" transform="rotate(315,0,-10)"/>
    <circle cx="0" cy="-10" r="11" class="ob"/>
    <circle cx="0" cy="-12" r="3.5" class="o"/>
    <ellipse cx="0" cy="60" rx="18" ry="5" class="o"/>
  </symbol>

  <symbol id="gnome" viewBox="-30 -75 60 160">
    <polygon points="0,-68 -16,-20 16,-20" class="ob"/>
    <ellipse cx="0" cy="-20" rx="18" ry="5" class="o"/>
    <circle cx="0" cy="-4" r="17" class="o"/>
    <path d="M-13,3 C-17,20 -9,32 0,34 C9,32 17,20 13,3Z" class="o"/>
    <circle cx="-6" cy="-8" r="2" class="o"/>
    <circle cx="6" cy="-8" r="2" class="o"/>
    <path d="M-18,20 C-20,58 20,58 18,20 L12,8 L-12,8Z" class="ob"/>
    <rect x="-18" y="30" width="36" height="6" rx="2" class="o"/>
    <rect x="-4" y="28" width="8" height="10" rx="1" class="o"/>
    <ellipse cx="-22" cy="26" rx="5" ry="10" class="o"/>
    <ellipse cx="22" cy="26" rx="5" ry="10" class="o"/>
    <circle cx="-26" cy="38" r="5" class="o"/>
    <circle cx="26" cy="38" r="5" class="o"/>
    <rect x="-12" y="56" width="10" height="17" rx="3" class="o"/>
    <rect x="2" y="56" width="10" height="17" rx="3" class="o"/>
    <ellipse cx="-7" cy="73" rx="9" ry="4" class="o"/>
    <ellipse cx="7" cy="73" rx="9" ry="4" class="o"/>
  </symbol>

  <symbol id="llama" viewBox="-32 -56 64 116">
    <ellipse cx="0" cy="10" rx="28" ry="23" class="ob"/>
    <rect x="-9" y="-26" width="18" height="34" rx="7" class="o"/>
    <ellipse cx="0" cy="-38" rx="16" ry="13" class="ob"/>
    <ellipse cx="-12" cy="-50" rx="4" ry="9" class="o"/>
    <ellipse cx="12" cy="-50" rx="4" ry="9" class="o"/>
    <ellipse cx="0" cy="-32" rx="9" ry="7" class="o"/>
    <circle cx="-4" cy="-33" r="1.8" class="o"/>
    <circle cx="4" cy="-33" r="1.8" class="o"/>
    <circle cx="-8" cy="-42" r="3" class="o"/>
    <circle cx="8" cy="-42" r="3" class="o"/>
    <path d="M-26,2 C-22,-3 -18,7 -14,2" class="o"/>
    <path d="M14,2 C18,-3 22,7 26,2" class="o"/>
    <rect x="-20" y="30" width="9" height="22" rx="3" class="o"/>
    <rect x="-5" y="30" width="9" height="22" rx="3" class="o"/>
    <rect x="5" y="30" width="9" height="22" rx="3" class="o"/>
    <rect x="16" y="30" width="9" height="22" rx="3" class="o"/>
    <ellipse cx="-15" cy="52" rx="6" ry="3.5" class="o"/>
    <ellipse cx="0" cy="52" rx="6" ry="3.5" class="o"/>
  </symbol>

</defs>

<!-- row 1 -->
<use href="#bunny"       x="10"  y="30"  width="60"  height="90"/>
<use href="#plumbob"     x="80"  y="40"  width="44"  height="80"/>
<use href="#reaper"      x="130" y="10"  width="70"  height="130"/>
<use href="#ghost"       x="210" y="30"  width="58"  height="100"/>
<use href="#deathflower" x="270" y="10"  width="50"  height="110"/>

<!-- row 2 offset -->
<use href="#gnome"       x="-10" y="145" width="52"  height="120"/>
<use href="#cowplant"    x="50"  y="120" width="72"  height="130"/>
<use href="#bonehilda"   x="140" y="130" width="68"  height="120"/>
<use href="#llama"       x="220" y="145" width="62"  height="100"/>
<use href="#plumbob"     x="300" y="160" width="36"  height="70"/>

</svg>
